<svg width="352" height="241" viewBox="0 0 352 241" fill="none" xmlns="http://www.w3.org/2000/svg">
<path d="M16.8125 116.438C17.4375 115.188 18.2292 113.646 19.1875 111.812C20.1875 109.938 21.2083 108.062 22.25 106.188C23.3333 104.312 24.375 102.542 25.375 100.875C26.4167 99.2083 27.2917 97.9375 28 97.0625C29.2083 95.6042 30.4583 94.5625 31.75 93.9375C33.0417 93.3125 34.2292 93 35.3125 93C36.3958 93 37.3125 93.2292 38.0625 93.6875C38.8542 94.1458 39.5 94.7708 40 95.5625C40.5 96.3125 40.875 97.2083 41.125 98.25C41.375 99.25 41.5 100.333 41.5 101.5C41.5 102.167 41.4583 103.042 41.375 104.125C41.3333 105.208 41.2708 106.375 41.1875 107.625C41.1458 108.875 41.0833 110.167 41 111.5C40.9583 112.833 40.9167 114.083 40.875 115.25C41.5 114 42.2083 112.625 43 111.125C43.7917 109.583 44.5833 108.062 45.375 106.562C46.2083 105.062 47 103.667 47.75 102.375C48.5 101.042 49.1875 99.9583 49.8125 99.125C51.6042 96.6667 53.2708 95.0208 54.8125 94.1875C56.3958 93.3542 57.7917 92.9375 59 92.9375C60.4167 92.9375 61.5833 93.2083 62.5 93.75C63.4167 94.25 64.125 94.9167 64.625 95.75C65.1667 96.5417 65.5417 97.4375 65.75 98.4375C65.9583 99.4375 66.0625 100.396 66.0625 101.312C66.0625 102.729 65.9583 104.208 65.75 105.75C65.5417 107.292 65.4375 109.125 65.4375 111.25C65.4375 112.125 65.4792 113 65.5625 113.875C65.6458 114.75 65.8125 115.521 66.0625 116.188C66.3542 116.854 66.7917 117.396 67.375 117.812C67.9583 118.229 68.75 118.438 69.75 118.438C70.8333 118.438 71.8958 118.167 72.9375 117.625C73.9792 117.042 74.9792 116.292 75.9375 115.375C76.8958 114.458 77.7917 113.417 78.625 112.25C79.5 111.083 80.2917 109.917 81 108.75C81.7083 107.583 82.3333 106.479 82.875 105.438C83.4167 104.354 83.8542 103.438 84.1875 102.688C84.3958 102.229 84.6875 101.875 85.0625 101.625C85.4375 101.375 85.8542 101.25 86.3125 101.25C87.0208 101.25 87.5833 101.521 88 102.062C88.4583 102.562 88.6875 103.104 88.6875 103.688C88.6875 103.979 88.625 104.271 88.5 104.562C88.3333 104.896 88 105.604 87.5 106.688C87 107.729 86.3333 108.938 85.5 110.312C84.6667 111.646 83.6875 113.062 82.5625 114.562C81.4792 116.062 80.2708 117.458 78.9375 118.75C77.6042 120 76.1667 121.042 74.625 121.875C73.0833 122.667 71.4583 123.062 69.75 123.062C67.9167 123.062 66.4167 122.729 65.25 122.062C64.125 121.438 63.2083 120.583 62.5 119.5C61.8333 118.417 61.375 117.167 61.125 115.75C60.875 114.333 60.75 112.854 60.75 111.312C60.75 109.271 60.8542 107.396 61.0625 105.688C61.2708 103.938 61.375 102.583 61.375 101.625C61.375 100.583 61.2708 99.7917 61.0625 99.25C60.8958 98.7083 60.6667 98.3333 60.375 98.125C60.125 97.875 59.875 97.75 59.625 97.75C59.375 97.7083 59.1875 97.6875 59.0625 97.6875C58.0625 97.6875 57 98.25 55.875 99.375C54.7917 100.458 53.6667 101.917 52.5 103.75C51.3333 105.583 50.125 107.667 48.875 110C47.6667 112.333 46.4375 114.708 45.1875 117.125C44.4792 118.458 43.875 119.562 43.375 120.438C42.9167 121.312 42.4583 122 42 122.5C41.5833 123 41.1667 123.354 40.75 123.562C40.3333 123.771 39.875 123.875 39.375 123.875C38.2917 123.875 37.4583 123.5 36.875 122.75C36.3333 122 36.0625 121.021 36.0625 119.812C36.0625 119.188 36.0833 118.354 36.125 117.312C36.1667 116.271 36.2083 115.125 36.25 113.875C36.2917 112.625 36.3542 111.333 36.4375 110C36.5208 108.667 36.5833 107.396 36.625 106.188C36.6667 104.938 36.7083 103.833 36.75 102.875C36.7917 101.917 36.8125 101.188 36.8125 100.688C36.8125 99.6042 36.625 98.8333 36.25 98.375C35.875 97.875 35.4375 97.625 34.9375 97.625C34.4792 97.625 33.9583 97.7917 33.375 98.125C32.8333 98.4583 32.1875 99.1042 31.4375 100.062C30.8542 100.812 30.1042 101.917 29.1875 103.375C28.3125 104.792 27.375 106.375 26.375 108.125C25.375 109.875 24.375 111.667 23.375 113.5C22.4167 115.333 21.5833 116.979 20.875 118.438C20 120.188 19.125 121.375 18.25 122C17.375 122.667 16.5208 123 15.6875 123C14.4792 123 13.5833 122.646 13 121.938C12.4167 121.188 12.125 120.208 12.125 119C12.125 118.875 12.1458 118.125 12.1875 116.75C12.2708 115.375 12.3542 113.708 12.4375 111.75C12.5208 109.75 12.6042 107.625 12.6875 105.375C12.8125 103.125 12.9167 101.021 13 99.0625C13.0417 98.0208 13 97.0625 12.875 96.1875C12.75 95.3125 12.5833 94.7917 12.375 94.625C12.0417 94.7083 11.375 95.4792 10.375 96.9375C9.41667 98.3958 8.1875 100.938 6.6875 104.562C6.47917 105.021 6.16667 105.375 5.75 105.625C5.33333 105.875 4.89583 106 4.4375 106C3.72917 106 3.16667 105.771 2.75 105.312C2.33333 104.812 2.125 104.25 2.125 103.625C2.125 103.333 2.1875 103.021 2.3125 102.688C4.1875 98.2292 5.97917 94.9583 7.6875 92.875C9.39583 90.75 11.0625 89.6875 12.6875 89.6875C13.6458 89.6875 14.4375 89.9167 15.0625 90.375C15.7292 90.7917 16.25 91.3542 16.625 92.0625C17 92.7292 17.2708 93.5 17.4375 94.375C17.6042 95.25 17.6875 96.1042 17.6875 96.9375C17.6875 100.646 17.5833 104.042 17.375 107.125C17.2083 110.208 17.0208 113.312 16.8125 116.438ZM132.562 104.562C132.396 104.896 132.042 105.604 131.5 106.688C131 107.729 130.333 108.938 129.5 110.312C128.708 111.688 127.771 113.125 126.688 114.625C125.604 116.125 124.396 117.5 123.062 118.75C121.729 120 120.292 121.042 118.75 121.875C117.208 122.667 115.583 123.062 113.875 123.062C111.458 123.062 109.417 122.292 107.75 120.75C106.125 119.208 104.938 117.271 104.188 114.938C102.771 117.312 101.083 119.208 99.125 120.625C97.1667 122 95.2083 122.688 93.25 122.688C91.7083 122.688 90.3125 122.417 89.0625 121.875C87.8125 121.292 86.75 120.5 85.875 119.5C85 118.458 84.3125 117.25 83.8125 115.875C83.3542 114.5 83.125 113 83.125 111.375C83.125 108.125 83.6667 105.271 84.75 102.812C85.875 100.312 87.2917 98.2292 89 96.5625C90.7083 94.8958 92.5833 93.6458 94.625 92.8125C96.7083 91.9792 98.7083 91.5625 100.625 91.5625C101.917 91.5625 103.104 91.75 104.188 92.125C105.271 92.4583 106.188 92.8333 106.938 93.25C107.729 93.6667 108.333 94.0625 108.75 94.4375C109.167 94.7708 109.396 94.9583 109.438 95C109.896 95.5417 110.125 96.1042 110.125 96.6875C110.125 97.3125 109.896 97.875 109.438 98.375C108.979 98.8333 108.438 99.0625 107.812 99.0625C107.146 99.0625 106.583 98.8333 106.125 98.375C106.042 98.2917 105.854 98.1458 105.562 97.9375C105.271 97.6875 104.875 97.4375 104.375 97.1875C103.875 96.9375 103.271 96.7292 102.562 96.5625C101.896 96.3542 101.125 96.25 100.25 96.25C98.9583 96.25 97.5833 96.5417 96.125 97.125C94.6667 97.7083 93.3333 98.625 92.125 99.875C90.9167 101.083 89.8958 102.625 89.0625 104.5C88.2708 106.333 87.875 108.521 87.875 111.062C87.875 111.854 87.9583 112.667 88.125 113.5C88.2917 114.292 88.5833 115.021 89 115.688C89.4167 116.354 89.9792 116.896 90.6875 117.312C91.3958 117.729 92.2708 117.938 93.3125 117.938C94.0625 117.938 94.9167 117.688 95.875 117.188C96.875 116.688 97.8125 115.917 98.6875 114.875C99.6042 113.833 100.417 112.521 101.125 110.938C101.875 109.354 102.396 107.479 102.688 105.312C102.771 104.729 103.042 104.25 103.5 103.875C103.958 103.458 104.5 103.25 105.125 103.25C105.708 103.25 106.208 103.479 106.625 103.938C107.083 104.396 107.333 104.917 107.375 105.5C107.417 106.292 107.5 107.417 107.625 108.875C107.75 110.292 108.021 111.708 108.438 113.125C108.896 114.542 109.562 115.771 110.438 116.812C111.312 117.854 112.521 118.375 114.062 118.375C115.062 118.375 116.042 118.104 117 117.562C118 117.021 118.958 116.312 119.875 115.438C120.833 114.521 121.729 113.5 122.562 112.375C123.438 111.208 124.229 110.042 124.938 108.875C125.646 107.708 126.271 106.583 126.812 105.5C127.354 104.417 127.812 103.479 128.188 102.688C128.396 102.229 128.688 101.875 129.062 101.625C129.479 101.375 129.917 101.25 130.375 101.25C131.083 101.25 131.646 101.521 132.062 102.062C132.521 102.562 132.75 103.104 132.75 103.688C132.75 103.979 132.688 104.271 132.562 104.562ZM144 114.312C144.708 115.896 145.875 117.167 147.5 118.125C149.125 119.042 150.958 119.5 153 119.5C153.625 119.5 154.646 119.417 156.062 119.25C157.479 119.042 159.104 118.417 160.938 117.375C162.812 116.292 164.792 114.604 166.875 112.312C168.958 110.021 170.979 106.792 172.938 102.625C173.146 102.167 173.438 101.833 173.812 101.625C174.188 101.375 174.604 101.25 175.062 101.25C175.771 101.25 176.333 101.5 176.75 102C177.208 102.5 177.438 103.042 177.438 103.625C177.438 103.875 177.354 104.208 177.188 104.625C175.729 107.667 174.104 110.396 172.312 112.812C170.521 115.188 168.583 117.229 166.5 118.938C164.417 120.604 162.229 121.875 159.938 122.75C157.688 123.667 155.375 124.125 153 124.125C151.125 124.125 149.354 123.833 147.688 123.25C146.062 122.667 144.646 121.896 143.438 120.938C142.271 119.938 141.333 118.833 140.625 117.625C139.958 116.375 139.625 115.104 139.625 113.812C139.625 113.646 139.646 113.417 139.688 113.125C139.729 112.833 139.833 112.521 140 112.188C140.208 111.812 140.479 111.479 140.812 111.188C141.188 110.854 141.688 110.583 142.312 110.375C144.021 109.875 145.583 109.271 147 108.562C148.458 107.812 149.708 106.979 150.75 106.062C151.792 105.146 152.604 104.146 153.188 103.062C153.771 101.938 154.062 100.729 154.062 99.4375C154.062 98.3125 153.688 97.3958 152.938 96.6875C152.188 95.9792 151.271 95.625 150.188 95.625C149.062 95.625 147.958 96.0208 146.875 96.8125C145.792 97.5625 144.729 98.5833 143.688 99.875C142.688 101.125 141.729 102.583 140.812 104.25C139.896 105.875 139.042 107.583 138.25 109.375C137.5 111.167 136.833 112.958 136.25 114.75C135.667 116.5 135.188 118.125 134.812 119.625C134.688 120.083 134.542 120.583 134.375 121.125C134.25 121.667 134.042 122.167 133.75 122.625C133.458 123.125 133.104 123.521 132.688 123.812C132.271 124.146 131.729 124.312 131.062 124.312C130.438 124.312 129.833 124.042 129.25 123.5C128.667 123 128.375 122.125 128.375 120.875C128.375 120.625 128.375 119.667 128.375 118C128.417 116.333 128.458 114.167 128.5 111.5C128.542 108.792 128.583 105.708 128.625 102.25C128.708 98.75 128.771 95.0625 128.812 91.1875C128.854 87.2708 128.917 83.25 129 79.125C129.083 75 129.146 70.9792 129.188 67.0625C129.229 63.1458 129.271 59.4375 129.312 55.9375C129.396 52.3958 129.458 49.2708 129.5 46.5625C129.542 43.8125 129.562 41.5833 129.562 39.875C129.604 38.125 129.625 37.0833 129.625 36.75C129.625 36.0833 129.875 35.5417 130.375 35.125C130.875 34.6667 131.417 34.4375 132 34.4375C132.667 34.4375 133.229 34.6667 133.688 35.125C134.146 35.5417 134.375 36.1042 134.375 36.8125C134.375 36.8958 134.354 37.7292 134.312 39.3125C134.312 40.8542 134.292 42.9375 134.25 45.5625C134.208 48.1875 134.146 51.25 134.062 54.75C134.021 58.25 133.958 61.9792 133.875 65.9375C133.833 69.8542 133.771 73.8958 133.688 78.0625C133.646 82.2292 133.583 86.2917 133.5 90.25C133.458 94.2083 133.417 97.9792 133.375 101.562C133.333 105.146 133.292 108.312 133.25 111.062C133.917 108.938 134.771 106.708 135.812 104.375C136.854 102 138.083 99.8125 139.5 97.8125C140.917 95.8125 142.5 94.1667 144.25 92.875C146.042 91.5833 148.021 90.9375 150.188 90.9375C151.396 90.9375 152.521 91.1667 153.562 91.625C154.604 92.0417 155.5 92.6458 156.25 93.4375C157.042 94.1875 157.646 95.0833 158.062 96.125C158.521 97.1667 158.75 98.2917 158.75 99.5C158.75 101.375 158.333 103.104 157.5 104.688C156.667 106.229 155.562 107.625 154.188 108.875C152.812 110.083 151.229 111.146 149.438 112.062C147.688 112.979 145.875 113.729 144 114.312ZM180.5 115.125C181.375 116.333 182.5 117.312 183.875 118.062C185.25 118.771 186.938 119.125 188.938 119.125C190.979 119.125 192.833 118.646 194.5 117.688C196.167 116.688 197.688 115.396 199.062 113.812C200.438 112.229 201.667 110.458 202.75 108.5C203.833 106.542 204.812 104.583 205.688 102.625C205.896 102.167 206.188 101.833 206.562 101.625C206.938 101.375 207.354 101.25 207.812 101.25C208.521 101.25 209.083 101.5 209.5 102C209.958 102.5 210.188 103.042 210.188 103.625C210.188 103.833 210.167 104.021 210.125 104.188C210.083 104.312 210.021 104.458 209.938 104.625C207.062 110.958 203.917 115.729 200.5 118.938C197.125 122.146 193.292 123.792 189 123.875C186.25 123.875 183.875 123.333 181.875 122.25C179.875 121.208 178.229 119.854 176.938 118.188C175.646 116.479 174.688 114.562 174.062 112.438C173.438 110.312 173.125 108.188 173.125 106.062C173.125 103.938 173.375 101.979 173.875 100.188C174.417 98.3958 175.167 96.8333 176.125 95.5C177.125 94.1667 178.292 93.125 179.625 92.375C181 91.625 182.5 91.25 184.125 91.25C185.083 91.25 186.021 91.4583 186.938 91.875C187.896 92.25 188.75 92.8125 189.5 93.5625C190.25 94.2708 190.854 95.1458 191.312 96.1875C191.771 97.2292 192 98.4167 192 99.75C192 101.458 191.708 103.062 191.125 104.562C190.542 106.062 189.729 107.458 188.688 108.75C187.688 110.042 186.479 111.229 185.062 112.312C183.646 113.396 182.125 114.333 180.5 115.125ZM178.625 111.062C179.917 110.521 181.083 109.833 182.125 109C183.208 108.167 184.125 107.25 184.875 106.25C185.625 105.25 186.208 104.208 186.625 103.125C187.042 102 187.25 100.875 187.25 99.75C187.25 98.5 186.938 97.5625 186.312 96.9375C185.688 96.2708 184.958 95.9375 184.125 95.9375C183 95.9375 182.042 96.25 181.25 96.875C180.458 97.5 179.812 98.3125 179.312 99.3125C178.812 100.312 178.438 101.438 178.188 102.688C177.979 103.896 177.875 105.104 177.875 106.312C177.875 107.062 177.938 107.854 178.062 108.688C178.229 109.521 178.417 110.312 178.625 111.062Z" fill="black"/>
<path d="M109.812 167.438C110.438 166.188 111.229 164.646 112.188 162.812C113.188 160.938 114.208 159.062 115.25 157.188C116.333 155.312 117.375 153.542 118.375 151.875C119.417 150.208 120.292 148.938 121 148.062C122.208 146.604 123.458 145.562 124.75 144.938C126.042 144.312 127.229 144 128.312 144C129.396 144 130.312 144.229 131.062 144.688C131.854 145.146 132.5 145.771 133 146.562C133.5 147.312 133.875 148.208 134.125 149.25C134.375 150.25 134.5 151.333 134.5 152.5C134.5 153.167 134.458 154.042 134.375 155.125C134.333 156.208 134.271 157.375 134.188 158.625C134.146 159.875 134.083 161.167 134 162.5C133.958 163.833 133.917 165.083 133.875 166.25C134.5 165 135.208 163.625 136 162.125C136.792 160.583 137.583 159.062 138.375 157.562C139.208 156.062 140 154.667 140.75 153.375C141.5 152.042 142.188 150.958 142.812 150.125C144.604 147.667 146.271 146.021 147.812 145.188C149.396 144.354 150.792 143.938 152 143.938C153.417 143.938 154.583 144.208 155.5 144.75C156.417 145.25 157.125 145.917 157.625 146.75C158.167 147.542 158.542 148.438 158.75 149.438C158.958 150.438 159.062 151.396 159.062 152.312C159.062 153.729 158.958 155.208 158.75 156.75C158.542 158.292 158.438 160.125 158.438 162.25C158.438 163.125 158.479 164 158.562 164.875C158.646 165.75 158.812 166.521 159.062 167.188C159.354 167.854 159.792 168.396 160.375 168.812C160.958 169.229 161.75 169.438 162.75 169.438C163.833 169.438 164.896 169.167 165.938 168.625C166.979 168.042 167.979 167.292 168.938 166.375C169.896 165.458 170.792 164.417 171.625 163.25C172.5 162.083 173.292 160.917 174 159.75C174.708 158.583 175.333 157.479 175.875 156.438C176.417 155.354 176.854 154.438 177.188 153.688C177.396 153.229 177.688 152.875 178.062 152.625C178.438 152.375 178.854 152.25 179.312 152.25C180.021 152.25 180.583 152.521 181 153.062C181.458 153.562 181.688 154.104 181.688 154.688C181.688 154.979 181.625 155.271 181.5 155.562C181.333 155.896 181 156.604 180.5 157.688C180 158.729 179.333 159.938 178.5 161.312C177.667 162.646 176.688 164.062 175.562 165.562C174.479 167.062 173.271 168.458 171.938 169.75C170.604 171 169.167 172.042 167.625 172.875C166.083 173.667 164.458 174.062 162.75 174.062C160.917 174.062 159.417 173.729 158.25 173.062C157.125 172.438 156.208 171.583 155.5 170.5C154.833 169.417 154.375 168.167 154.125 166.75C153.875 165.333 153.75 163.854 153.75 162.312C153.75 160.271 153.854 158.396 154.062 156.688C154.271 154.938 154.375 153.583 154.375 152.625C154.375 151.583 154.271 150.792 154.062 150.25C153.896 149.708 153.667 149.333 153.375 149.125C153.125 148.875 152.875 148.75 152.625 148.75C152.375 148.708 152.188 148.688 152.062 148.688C151.062 148.688 150 149.25 148.875 150.375C147.792 151.458 146.667 152.917 145.5 154.75C144.333 156.583 143.125 158.667 141.875 161C140.667 163.333 139.438 165.708 138.188 168.125C137.479 169.458 136.875 170.562 136.375 171.438C135.917 172.312 135.458 173 135 173.5C134.583 174 134.167 174.354 133.75 174.562C133.333 174.771 132.875 174.875 132.375 174.875C131.292 174.875 130.458 174.5 129.875 173.75C129.333 173 129.062 172.021 129.062 170.812C129.062 170.188 129.083 169.354 129.125 168.312C129.167 167.271 129.208 166.125 129.25 164.875C129.292 163.625 129.354 162.333 129.438 161C129.521 159.667 129.583 158.396 129.625 157.188C129.667 155.938 129.708 154.833 129.75 153.875C129.792 152.917 129.812 152.188 129.812 151.688C129.812 150.604 129.625 149.833 129.25 149.375C128.875 148.875 128.438 148.625 127.938 148.625C127.479 148.625 126.958 148.792 126.375 149.125C125.833 149.458 125.188 150.104 124.438 151.062C123.854 151.812 123.104 152.917 122.188 154.375C121.312 155.792 120.375 157.375 119.375 159.125C118.375 160.875 117.375 162.667 116.375 164.5C115.417 166.333 114.583 167.979 113.875 169.438C113 171.188 112.125 172.375 111.25 173C110.375 173.667 109.521 174 108.688 174C107.479 174 106.583 173.646 106 172.938C105.417 172.188 105.125 171.208 105.125 170C105.125 169.875 105.146 169.125 105.188 167.75C105.271 166.375 105.354 164.708 105.438 162.75C105.521 160.75 105.604 158.625 105.688 156.375C105.812 154.125 105.917 152.021 106 150.062C106.042 149.021 106 148.062 105.875 147.188C105.75 146.312 105.583 145.792 105.375 145.625C105.042 145.708 104.375 146.479 103.375 147.938C102.417 149.396 101.188 151.938 99.6875 155.562C99.4792 156.021 99.1667 156.375 98.75 156.625C98.3333 156.875 97.8958 157 97.4375 157C96.7292 157 96.1667 156.771 95.75 156.312C95.3333 155.812 95.125 155.25 95.125 154.625C95.125 154.333 95.1875 154.021 95.3125 153.688C97.1875 149.229 98.9792 145.958 100.688 143.875C102.396 141.75 104.062 140.688 105.688 140.688C106.646 140.688 107.438 140.917 108.062 141.375C108.729 141.792 109.25 142.354 109.625 143.062C110 143.729 110.271 144.5 110.438 145.375C110.604 146.25 110.688 147.104 110.688 147.938C110.688 151.646 110.583 155.042 110.375 158.125C110.208 161.208 110.021 164.312 109.812 167.438ZM206.062 166.125C205.021 166.125 204.104 166.042 203.312 165.875C202.688 167.125 201.938 168.292 201.062 169.375C200.188 170.417 199.167 171.333 198 172.125C196.875 172.917 195.604 173.542 194.188 174C192.771 174.458 191.229 174.688 189.562 174.688C187.604 174.688 185.812 174.333 184.188 173.625C182.562 172.958 181.146 172.021 179.938 170.812C178.729 169.562 177.792 168.083 177.125 166.375C176.458 164.625 176.125 162.708 176.125 160.625C176.125 157.958 176.604 155.646 177.562 153.688C178.521 151.688 179.625 150.042 180.875 148.75C182.125 147.417 183.375 146.438 184.625 145.812C185.875 145.146 186.812 144.812 187.438 144.812C188.146 144.812 188.667 145 189 145.375C189.375 145.75 189.562 146.25 189.562 146.875C189.562 147.583 189.333 148.125 188.875 148.5C188.458 148.833 187.917 149.167 187.25 149.5C186.583 149.833 185.875 150.312 185.125 150.938C184.375 151.521 183.667 152.271 183 153.188C182.375 154.104 181.854 155.188 181.438 156.438C181.021 157.688 180.812 159.083 180.812 160.625C180.812 162 181.021 163.292 181.438 164.5C181.854 165.667 182.458 166.688 183.25 167.562C184.042 168.396 184.979 169.062 186.062 169.562C187.146 170.021 188.354 170.25 189.688 170.25C192.062 170.25 194.021 169.708 195.562 168.625C197.146 167.5 198.354 166.083 199.188 164.375C196.729 163.083 194.708 161.25 193.125 158.875C191.542 156.5 190.75 153.833 190.75 150.875C190.75 148.5 191.312 146.562 192.438 145.062C193.604 143.562 195.125 142.812 197 142.812C198.125 142.812 199.188 143.083 200.188 143.625C201.188 144.167 202.062 145.021 202.812 146.188C203.604 147.354 204.229 148.854 204.688 150.688C205.146 152.521 205.375 154.708 205.375 157.25C205.375 158.583 205.208 159.979 204.875 161.438C205.125 161.479 205.375 161.5 205.625 161.5C205.875 161.5 206.146 161.5 206.438 161.5C207.854 161.5 209.125 161.333 210.25 161C211.375 160.667 212.396 160.167 213.312 159.5C214.229 158.833 215.042 157.979 215.75 156.938C216.5 155.896 217.208 154.688 217.875 153.312C218 153.062 218.271 152.833 218.688 152.625C219.104 152.375 219.521 152.25 219.938 152.25C220.479 152.25 220.979 152.479 221.438 152.938C221.938 153.354 222.188 153.917 222.188 154.625C222.188 154.958 222.104 155.333 221.938 155.75C221.771 156.125 221.604 156.479 221.438 156.812C220.729 158.062 219.896 159.271 218.938 160.438C218.021 161.562 216.917 162.562 215.625 163.438C214.375 164.271 212.958 164.938 211.375 165.438C209.792 165.938 208.021 166.167 206.062 166.125ZM195.375 150.375C195.375 151.167 195.479 152 195.688 152.875C195.896 153.75 196.208 154.625 196.625 155.5C197.083 156.333 197.625 157.146 198.25 157.938C198.917 158.688 199.688 159.333 200.562 159.875C200.688 159 200.75 158.146 200.75 157.312C200.75 156.188 200.667 155.042 200.5 153.875C200.333 152.708 200.083 151.646 199.75 150.688C199.458 149.688 199.083 148.896 198.625 148.312C198.167 147.688 197.625 147.375 197 147.375C196.75 147.375 196.417 147.562 196 147.938C195.583 148.312 195.375 149.125 195.375 150.375ZM231.625 167.375C232.292 166 233.062 164.5 233.938 162.875C234.812 161.208 235.75 159.542 236.75 157.875C237.75 156.167 238.792 154.479 239.875 152.812C241 151.146 242.167 149.562 243.375 148.062C244.583 146.604 245.792 145.562 247 144.938C248.25 144.271 249.417 143.938 250.5 143.938C252.667 143.938 254.271 144.729 255.312 146.312C256.354 147.896 256.875 149.854 256.875 152.188C256.875 152.729 256.833 153.396 256.75 154.188C256.708 154.938 256.646 155.75 256.562 156.625C256.521 157.5 256.458 158.396 256.375 159.312C256.333 160.188 256.312 161.021 256.312 161.812C256.312 162.812 256.354 163.771 256.438 164.688C256.562 165.604 256.771 166.417 257.062 167.125C257.354 167.792 257.771 168.333 258.312 168.75C258.854 169.125 259.562 169.312 260.438 169.312C262.021 169.312 263.562 168.708 265.062 167.5C266.562 166.25 267.938 164.792 269.188 163.125C270.479 161.417 271.583 159.688 272.5 157.938C273.458 156.188 274.167 154.771 274.625 153.688C274.833 153.229 275.125 152.875 275.5 152.625C275.917 152.375 276.354 152.25 276.812 152.25C277.521 152.25 278.083 152.521 278.5 153.062C278.958 153.562 279.188 154.104 279.188 154.688C279.188 154.979 279.125 155.271 279 155.562C278.833 155.896 278.5 156.583 278 157.625C277.5 158.667 276.833 159.875 276 161.25C275.208 162.583 274.271 164.021 273.188 165.562C272.104 167.062 270.896 168.438 269.562 169.688C268.271 170.938 266.854 171.979 265.312 172.812C263.812 173.646 262.229 174.062 260.562 174.062C258.688 174.062 257.167 173.708 256 173C254.833 172.25 253.917 171.292 253.25 170.125C252.583 168.917 252.125 167.604 251.875 166.188C251.667 164.729 251.562 163.271 251.562 161.812C251.562 161.188 251.583 160.479 251.625 159.688C251.708 158.896 251.792 158.062 251.875 157.188C252 156.312 252.083 155.438 252.125 154.562C252.208 153.688 252.25 152.854 252.25 152.062C252.25 150.729 252.042 149.833 251.625 149.375C251.208 148.875 250.833 148.625 250.5 148.625C249.833 148.625 249.062 149.021 248.188 149.812C247.354 150.562 246.458 151.562 245.5 152.812C244.583 154.062 243.625 155.479 242.625 157.062C241.667 158.604 240.75 160.146 239.875 161.688C239.042 163.229 238.25 164.708 237.5 166.125C236.792 167.5 236.229 168.646 235.812 169.562C234.979 171.312 234.146 172.479 233.312 173.062C232.479 173.688 231.625 174 230.75 174C229.542 174 228.562 173.646 227.812 172.938C227.104 172.188 226.75 171.146 226.75 169.812C226.75 169.521 226.792 168.958 226.875 168.125C226.958 167.25 227.062 166.229 227.188 165.062C227.312 163.854 227.438 162.562 227.562 161.188C227.688 159.812 227.812 158.458 227.938 157.125C228.062 155.75 228.167 154.479 228.25 153.312C228.333 152.146 228.375 151.167 228.375 150.375C228.375 149.333 228.333 148.333 228.25 147.375C228.167 146.417 228 145.833 227.75 145.625C227.375 145.75 226.708 146.542 225.75 148C224.792 149.417 223.562 151.938 222.062 155.562C221.854 156.021 221.542 156.375 221.125 156.625C220.708 156.875 220.271 157 219.812 157C219.104 157 218.542 156.771 218.125 156.312C217.708 155.812 217.5 155.25 217.5 154.625C217.5 154.333 217.562 154.021 217.688 153.688C219.562 149.229 221.312 145.958 222.938 143.875C224.604 141.75 226.25 140.688 227.875 140.688C228.833 140.688 229.646 140.938 230.312 141.438C230.979 141.896 231.5 142.521 231.875 143.312C232.292 144.104 232.583 144.979 232.75 145.938C232.958 146.896 233.062 147.875 233.062 148.875C233.062 149.625 233 150.792 232.875 152.375C232.792 153.958 232.667 155.667 232.5 157.5C232.333 159.292 232.167 161.083 232 162.875C231.875 164.667 231.75 166.167 231.625 167.375ZM282.25 166.125C283.125 167.333 284.25 168.312 285.625 169.062C287 169.771 288.688 170.125 290.688 170.125C292.729 170.125 294.583 169.646 296.25 168.688C297.917 167.688 299.438 166.396 300.812 164.812C302.188 163.229 303.417 161.458 304.5 159.5C305.583 157.542 306.562 155.583 307.438 153.625C307.646 153.167 307.938 152.833 308.312 152.625C308.688 152.375 309.104 152.25 309.562 152.25C310.271 152.25 310.833 152.5 311.25 153C311.708 153.5 311.938 154.042 311.938 154.625C311.938 154.833 311.917 155.021 311.875 155.188C311.833 155.312 311.771 155.458 311.688 155.625C308.812 161.958 305.667 166.729 302.25 169.938C298.875 173.146 295.042 174.792 290.75 174.875C288 174.875 285.625 174.333 283.625 173.25C281.625 172.208 279.979 170.854 278.688 169.188C277.396 167.479 276.438 165.562 275.812 163.438C275.188 161.312 274.875 159.188 274.875 157.062C274.875 154.938 275.125 152.979 275.625 151.188C276.167 149.396 276.917 147.833 277.875 146.5C278.875 145.167 280.042 144.125 281.375 143.375C282.75 142.625 284.25 142.25 285.875 142.25C286.833 142.25 287.771 142.458 288.688 142.875C289.646 143.25 290.5 143.812 291.25 144.562C292 145.271 292.604 146.146 293.062 147.188C293.521 148.229 293.75 149.417 293.75 150.75C293.75 152.458 293.458 154.062 292.875 155.562C292.292 157.062 291.479 158.458 290.438 159.75C289.438 161.042 288.229 162.229 286.812 163.312C285.396 164.396 283.875 165.333 282.25 166.125ZM280.375 162.062C281.667 161.521 282.833 160.833 283.875 160C284.958 159.167 285.875 158.25 286.625 157.25C287.375 156.25 287.958 155.208 288.375 154.125C288.792 153 289 151.875 289 150.75C289 149.5 288.688 148.562 288.062 147.938C287.438 147.271 286.708 146.938 285.875 146.938C284.75 146.938 283.792 147.25 283 147.875C282.208 148.5 281.562 149.312 281.062 150.312C280.562 151.312 280.188 152.438 279.938 153.688C279.729 154.896 279.625 156.104 279.625 157.312C279.625 158.062 279.688 158.854 279.812 159.688C279.979 160.521 280.167 161.312 280.375 162.062ZM330.75 173.875C332.208 172.417 333.688 170.938 335.188 169.438C336.688 167.896 338.146 166.292 339.562 164.625C340.979 162.958 342.292 161.229 343.5 159.438C344.75 157.604 345.854 155.667 346.812 153.625C347.021 153.167 347.312 152.833 347.688 152.625C348.062 152.375 348.479 152.25 348.938 152.25C349.646 152.25 350.208 152.5 350.625 153C351.083 153.5 351.312 154.062 351.312 154.688C351.312 155.021 351.25 155.333 351.125 155.625C349.833 158.333 348.354 160.812 346.688 163.062C345.021 165.312 343.271 167.458 341.438 169.5C339.604 171.5 337.75 173.438 335.875 175.312C334 177.229 332.208 179.146 330.5 181.062C330.333 183.938 330.333 186.812 330.5 189.688C330.667 192.604 330.75 195.688 330.75 198.938C330.75 201.604 330.667 204.271 330.5 206.938C330.333 209.604 330.062 212.146 329.688 214.562C329.312 217.021 328.792 219.312 328.125 221.438C327.5 223.562 326.688 225.396 325.688 226.938C324.688 228.521 323.521 229.75 322.188 230.625C320.854 231.542 319.292 232 317.5 232C314.542 232 312.271 230.979 310.688 228.938C309.104 226.896 308.312 224.042 308.312 220.375C308.312 218.375 308.521 216.229 308.938 213.938C309.396 211.646 310.021 209.271 310.812 206.812C311.604 204.396 312.542 201.938 313.625 199.438C314.75 196.938 315.958 194.5 317.25 192.125C318.542 189.75 319.917 187.479 321.375 185.312C322.833 183.188 324.312 181.25 325.812 179.5C325.896 177.5 325.979 175.417 326.062 173.25C326.188 171.125 326.312 169.146 326.438 167.312C325.354 169.229 324 170.771 322.375 171.938C320.792 173.104 319.042 173.688 317.125 173.688C313.958 173.688 311.479 172.625 309.688 170.5C307.896 168.375 307 165.458 307 161.75C307 159.042 307.25 156.583 307.75 154.375C308.292 152.125 308.854 150.208 309.438 148.625C310.062 147 310.625 145.771 311.125 144.938C311.625 144.062 311.875 143.646 311.875 143.688C312.333 142.979 312.979 142.625 313.812 142.625C314.521 142.625 315.083 142.875 315.5 143.375C315.958 143.833 316.188 144.375 316.188 145C316.188 145.458 316.062 145.875 315.812 146.25C315.854 146.208 315.646 146.562 315.188 147.312C314.771 148.021 314.292 149.062 313.75 150.438C313.25 151.812 312.771 153.458 312.312 155.375C311.896 157.292 311.688 159.396 311.688 161.688C311.688 163.979 312.104 165.771 312.938 167.062C313.771 168.354 315.125 169 317 169C319.375 169 321.521 167.25 323.438 163.75C325.354 160.208 326.979 155.083 328.312 148.375C328.396 147.833 328.646 147.396 329.062 147.062C329.479 146.688 329.979 146.5 330.562 146.5C331.229 146.5 331.792 146.729 332.25 147.188C332.708 147.646 332.938 148.208 332.938 148.875C332.938 149 332.854 149.75 332.688 151.125C332.521 152.458 332.312 154.25 332.062 156.5C331.854 158.75 331.625 161.375 331.375 164.375C331.125 167.333 330.917 170.5 330.75 173.875ZM325.75 187.125C323.875 189.833 322.146 192.688 320.562 195.688C319.021 198.688 317.688 201.667 316.562 204.625C315.438 207.583 314.562 210.417 313.938 213.125C313.312 215.833 313 218.25 313 220.375C313 222.542 313.354 224.229 314.062 225.438C314.771 226.688 315.896 227.312 317.438 227.312C318.812 227.312 320.021 226.625 321.062 225.25C322.146 223.917 323.042 222 323.75 219.5C324.5 217 325.062 213.958 325.438 210.375C325.812 206.833 326 202.854 326 198.438C326 196.646 325.958 194.833 325.875 193C325.833 191.167 325.792 189.208 325.75 187.125Z" fill="black"/>
</svg>
